<svg version="1.1" viewBox="0.0 0.0 1920.0 672.0" fill="none" stroke="none" stroke-linecap="square" stroke-miterlimit="10" xmlns:xlink="http://www.w3.org/1999/xlink" xmlns="http://www.w3.org/2000/svg"><clipPath id="p.0"><path d="m0 0l1920.0 0l0 672.0l-1920.0 0l0 -672.0z" clip-rule="nonzero"/></clipPath><g clip-path="url(#p.0)"><path fill="#000000" fill-opacity="0.0" d="m0 0l1920.0 0l0 672.0l-1920.0 0z" fill-rule="evenodd"/><path fill="#1c4587" d="m0 -178.0l1920.0 0l0 983.9685l-1920.0 0z" fill-rule="evenodd"/><path stroke="#1c4587" stroke-width="3.0" stroke-linejoin="round" stroke-linecap="butt" d="m0 -178.0l1920.0 0l0 983.9685l-1920.0 0z" fill-rule="evenodd"/><path fill="#000000" fill-opacity="0.0" d="m896.29974 -168.0l0 961.19684" fill-rule="evenodd"/><path stroke="#f3f3f3" stroke-width="3.0" stroke-linejoin="round" stroke-linecap="butt" stroke-dasharray="12.0,9.0" d="m896.29974 -168.0l0 961.19684" fill-rule="evenodd"/><path fill="#000000" fill-opacity="0.0" d="m1014.37115 -168.0l0 961.19684" fill-rule="evenodd"/><path stroke="#f3f3f3" stroke-width="3.0" stroke-linejoin="round" stroke-linecap="butt" stroke-dasharray="12.0,9.0" d="m1014.37115 -168.0l0 961.19684" fill-rule="evenodd"/><path fill="#000000" fill-opacity="0.0" d="m1132.4426 -168.0l0 961.19684" fill-rule="evenodd"/><path stroke="#f3f3f3" stroke-width="3.0" stroke-linejoin="round" stroke-linecap="butt" stroke-dasharray="12.0,9.0" d="m1132.4426 -168.0l0 961.19684" fill-rule="evenodd"/><path fill="#000000" fill-opacity="0.0" d="m1250.514 -168.0l0 961.19684" fill-rule="evenodd"/><path stroke="#f3f3f3" stroke-width="3.0" stroke-linejoin="round" stroke-linecap="butt" stroke-dasharray="12.0,9.0" d="m1250.514 -168.0l0 961.19684" fill-rule="evenodd"/><path fill="#000000" fill-opacity="0.0" d="m1368.5854 -168.0l0 961.19684" fill-rule="evenodd"/><path stroke="#f3f3f3" stroke-width="3.0" stroke-linejoin="round" stroke-linecap="butt" stroke-dasharray="12.0,9.0" d="m1368.5854 -168.0l0 961.19684" fill-rule="evenodd"/><path fill="#000000" fill-opacity="0.0" d="m1486.6569 -168.0l0 961.19684" fill-rule="evenodd"/><path stroke="#f3f3f3" stroke-width="3.0" stroke-linejoin="round" stroke-linecap="butt" stroke-dasharray="12.0,9.0" d="m1486.6569 -168.0l0 961.19684" fill-rule="evenodd"/><path fill="#000000" fill-opacity="0.0" d="m1604.7283 -168.0l0 961.19684" fill-rule="evenodd"/><path stroke="#f3f3f3" stroke-width="3.0" stroke-linejoin="round" stroke-linecap="butt" stroke-dasharray="12.0,9.0" d="m1604.7283 -168.0l0 961.19684" fill-rule="evenodd"/><path fill="#000000" fill-opacity="0.0" d="m824.50134 281.50116c11.500427 -18.410767 37.083496 -141.62904 69.002625 -110.46457c31.919067 31.16449 82.60321 313.75153 122.51178 297.45145c39.90857 -16.30008 77.4939 -372.84164 116.939575 -395.25195c39.4458 -22.410328 79.824585 250.60278 119.734985 260.79c39.91028 10.187225 80.282104 -221.3985 119.72705 -199.66666c39.444824 21.731842 78.42566 313.7585 116.94226 330.05774c38.5166 16.299225 74.86572 -234.53543 114.15747 -232.26247c39.291748 2.2729645 101.32764 204.91689 121.59314 245.90025" fill-rule="evenodd"/><path stroke="#ff9900" stroke-width="4.0" stroke-linejoin="round" stroke-linecap="butt" d="m824.50134 281.50116c11.500427 -18.410767 37.083496 -141.62904 69.002625 -110.46457c31.919067 31.16449 82.60321 313.75153 122.51178 297.45145c39.90857 -16.30008 77.4939 -372.84164 116.939575 -395.25195c39.4458 -22.410328 79.824585 250.60278 119.734985 260.79c39.91028 10.187225 80.282104 -221.3985 119.72705 -199.66666c39.444824 21.731842 78.42566 313.7585 116.94226 330.05774c38.5166 16.299225 74.86572 -234.53543 114.15747 -232.26247c39.291748 2.2729645 101.32764 204.91689 121.59314 245.90025" fill-rule="evenodd"/><path fill="#000000" fill-opacity="0.0" d="m826.50134 403.00006c10.855591 -16.752838 33.548096 -98.56387 65.13385 -100.51706c31.585693 -1.953186 83.84509 96.78522 124.380554 88.79791c40.5354 -7.987335 79.69861 -161.51839 118.83203 -136.7218c39.133423 24.7966 77.31189 256.0118 115.968506 285.5013c38.656616 29.489502 76.52539 -117.86832 115.97107 -108.5643c39.4458 9.304016 80.85486 221.35611 120.70349 164.38846c39.848633 -56.96765 78.307495 -510.923 118.38843 -506.1942c40.080933 4.7287827 101.74756 445.4724 122.097046 534.5669" fill-rule="evenodd"/><path stroke="#ffffff" stroke-width="4.0" stroke-linejoin="round" stroke-linecap="butt" d="m826.50134 403.00006c10.855591 -16.752838 33.548096 -98.56387 65.13385 -100.51706c31.585693 -1.953186 83.84509 96.78522 124.380554 88.79791c40.5354 -7.987335 79.69861 -161.51839 118.83203 -136.7218c39.133423 24.7966 77.31189 256.0118 115.968506 285.5013c38.656616 29.489502 76.52539 -117.86832 115.97107 -108.5643c39.4458 9.304016 80.85486 221.35611 120.70349 164.38846c39.848633 -56.96765 78.307495 -510.923 118.38843 -506.1942c40.080933 4.7287827 101.74756 445.4724 122.097046 534.5669" fill-rule="evenodd"/><path fill="#ff9900" d="m876.42236 171.36978l0 0c0 -8.18425 6.662842 -14.818893 14.881836 -14.818893l0 0c3.9469604 0 7.732239 1.5612793 10.523132 4.3403625c2.7908936 2.7790833 4.3587646 6.5483246 4.3587646 10.478531l0 0c0 8.18425 -6.662842 14.818909 -14.881897 14.818909l0 0c-8.218994 0 -14.881836 -6.634659 -14.881836 -14.818909z" fill-rule="evenodd"/><path stroke="#ff9900" stroke-width="1.0" stroke-linejoin="round" stroke-linecap="butt" d="m876.42236 171.36978l0 0c0 -8.18425 6.662842 -14.818893 14.881836 -14.818893l0 0c3.9469604 0 7.732239 1.5612793 10.523132 4.3403625c2.7908936 2.7790833 4.3587646 6.5483246 4.3587646 10.478531l0 0c0 8.18425 -6.662842 14.818909 -14.881897 14.818909l0 0c-8.218994 0 -14.881836 -6.634659 -14.881836 -14.818909z" fill-rule="evenodd"/><path fill="#ff9900" d="m999.4951 468.44186l0 0c0 -8.184265 6.662903 -14.818909 14.881897 -14.818909l0 0c3.9469604 0 7.732239 1.5612793 10.523132 4.3403625c2.7908936 2.7790833 4.3587646 6.5483093 4.3587646 10.478546l0 0c0 8.184235 -6.662842 14.818878 -14.881897 14.818878l0 0c-8.218994 0 -14.881897 -6.6346436 -14.881897 -14.818878z" fill-rule="evenodd"/><path stroke="#ff9900" stroke-width="1.0" stroke-linejoin="round" stroke-linecap="butt" d="m999.4951 468.44186l0 0c0 -8.184265 6.662903 -14.818909 14.881897 -14.818909l0 0c3.9469604 0 7.732239 1.5612793 10.523132 4.3403625c2.7908936 2.7790833 4.3587646 6.5483093 4.3587646 10.478546l0 0c0 8.184235 -6.662842 14.818878 -14.881897 14.818878l0 0c-8.218994 0 -14.881897 -6.6346436 -14.881897 -14.818878z" fill-rule="evenodd"/><path fill="#ff9900" d="m1117.5664 74.82434l0 0c0 -8.1842575 6.662964 -14.818901 14.881958 -14.818901l0 0c3.9468994 0 7.7321777 1.5612717 10.523071 4.340355c2.7908936 2.7790833 4.3587646 6.5483246 4.3587646 10.478546l0 0c0 8.18425 -6.662842 14.818893 -14.881836 14.818893l0 0c-8.218994 0 -14.881958 -6.6346436 -14.881958 -14.818893z" fill-rule="evenodd"/><path stroke="#ff9900" stroke-width="1.0" stroke-linejoin="round" stroke-linecap="butt" d="m1117.5664 74.82434l0 0c0 -8.1842575 6.662964 -14.818901 14.881958 -14.818901l0 0c3.9468994 0 7.7321777 1.5612717 10.523071 4.340355c2.7908936 2.7790833 4.3587646 6.5483246 4.3587646 10.478546l0 0c0 8.18425 -6.662842 14.818893 -14.881836 14.818893l0 0c-8.218994 0 -14.881958 -6.6346436 -14.881958 -14.818893z" fill-rule="evenodd"/><path fill="#ff9900" d="m1235.639 331.95496l0 0c0 -8.184265 6.662842 -14.818909 14.881958 -14.818909l0 0c3.9468994 0 7.7321777 1.5612793 10.523071 4.3403625c2.7908936 2.7790833 4.3587646 6.5483093 4.3587646 10.478546l0 0c0 8.184235 -6.662842 14.818878 -14.881836 14.818878l0 0c-8.219116 0 -14.881958 -6.6346436 -14.881958 -14.818878z" fill-rule="evenodd"/><path stroke="#ff9900" stroke-width="1.0" stroke-linejoin="round" stroke-linecap="butt" d="m1235.639 331.95496l0 0c0 -8.184265 6.662842 -14.818909 14.881958 -14.818909l0 0c3.9468994 0 7.7321777 1.5612793 10.523071 4.3403625c2.7908936 2.7790833 4.3587646 6.5483093 4.3587646 10.478546l0 0c0 8.184235 -6.662842 14.818878 -14.881836 14.818878l0 0c-8.219116 0 -14.881958 -6.6346436 -14.881958 -14.818878z" fill-rule="evenodd"/><path fill="#ff9900" d="m1353.7091 133.02557l0 0c0 -8.1842575 6.662842 -14.818901 14.881836 -14.818901l0 0c3.9470215 0 7.7321777 1.5612717 10.523071 4.340355c2.7908936 2.7790833 4.3588867 6.5483246 4.3588867 10.478546l0 0c0 8.18425 -6.662842 14.818893 -14.881958 14.818893l0 0c-8.218994 0 -14.881836 -6.6346436 -14.881836 -14.818893z" fill-rule="evenodd"/><path stroke="#ff9900" stroke-width="1.0" stroke-linejoin="round" stroke-linecap="butt" d="m1353.7091 133.02557l0 0c0 -8.1842575 6.662842 -14.818901 14.881836 -14.818901l0 0c3.9470215 0 7.7321777 1.5612717 10.523071 4.340355c2.7908936 2.7790833 4.3588867 6.5483246 4.3588867 10.478546l0 0c0 8.18425 -6.662842 14.818893 -14.881958 14.818893l0 0c-8.218994 0 -14.881836 -6.6346436 -14.881836 -14.818893z" fill-rule="evenodd"/><path fill="#ff9900" d="m1474.5126 460.69858l0 0c0 -8.184265 6.662842 -14.818909 14.881958 -14.818909l0 0c3.9468994 0 7.7321777 1.5612793 10.523071 4.3403625c2.7908936 2.7790833 4.3587646 6.54834 4.3587646 10.478546l0 0c0 8.184265 -6.662842 14.818909 -14.881836 14.818909l0 0c-8.219116 0 -14.881958 -6.6346436 -14.881958 -14.818909z" fill-rule="evenodd"/><path stroke="#ff9900" stroke-width="1.0" stroke-linejoin="round" stroke-linecap="butt" d="m1474.5126 460.69858l0 0c0 -8.184265 6.662842 -14.818909 14.881958 -14.818909l0 0c3.9468994 0 7.7321777 1.5612793 10.523071 4.3403625c2.7908936 2.7790833 4.3587646 6.54834 4.3587646 10.478546l0 0c0 8.184265 -6.662842 14.818909 -14.881836 14.818909l0 0c-8.219116 0 -14.881958 -6.6346436 -14.881958 -14.818909z" fill-rule="evenodd"/><path fill="#ff9900" d="m1585.9083 231.73428l0 0c0 -8.18425 6.662842 -14.818909 14.881958 -14.818909l0 0c3.9468994 0 7.7321777 1.5612793 10.523071 4.3403625c2.7908936 2.7790833 4.3587646 6.5483246 4.3587646 10.478546l0 0c0 8.18425 -6.662842 14.818893 -14.881836 14.818893l0 0c-8.219116 0 -14.881958 -6.6346436 -14.881958 -14.818893z" fill-rule="evenodd"/><path stroke="#ff9900" stroke-width="1.0" stroke-linejoin="round" stroke-linecap="butt" d="m1585.9083 231.73428l0 0c0 -8.18425 6.662842 -14.818909 14.881958 -14.818909l0 0c3.9468994 0 7.7321777 1.5612793 10.523071 4.3403625c2.7908936 2.7790833 4.3587646 6.5483246 4.3587646 10.478546l0 0c0 8.18425 -6.662842 14.818893 -14.881836 14.818893l0 0c-8.219116 0 -14.881958 -6.6346436 -14.881958 -14.818893z" fill-rule="evenodd"/><path fill="#ffffff" d="m883.4221 302.3051l0 0c0 -8.184265 6.662842 -14.818909 14.881836 -14.818909l0 0c3.9469604 0 7.732239 1.5612793 10.523132 4.3403625c2.7908936 2.7790833 4.3587646 6.54834 4.3587646 10.478546l0 0c0 8.184235 -6.662842 14.818909 -14.881897 14.818909l0 0c-8.218994 0 -14.881836 -6.634674 -14.881836 -14.818909z" fill-rule="evenodd"/><path stroke="#ffffff" stroke-width="1.0" stroke-linejoin="round" stroke-linecap="butt" d="m883.4221 302.3051l0 0c0 -8.184265 6.662842 -14.818909 14.881836 -14.818909l0 0c3.9469604 0 7.732239 1.5612793 10.523132 4.3403625c2.7908936 2.7790833 4.3587646 6.54834 4.3587646 10.478546l0 0c0 8.184235 -6.662842 14.818909 -14.881897 14.818909l0 0c-8.218994 0 -14.881836 -6.634674 -14.881836 -14.818909z" fill-rule="evenodd"/><path fill="#ffffff" d="m999.4951 387.17877l0 0c0 -8.184235 6.662903 -14.818878 14.881897 -14.818878l0 0c3.9469604 0 7.732239 1.5612793 10.523132 4.3403625c2.7908936 2.7790833 4.3587646 6.5483093 4.3587646 10.478516l0 0c0 8.184265 -6.662842 14.818909 -14.881897 14.818909l0 0c-8.218994 0 -14.881897 -6.6346436 -14.881897 -14.818909z" fill-rule="evenodd"/><path stroke="#ffffff" stroke-width="1.0" stroke-linejoin="round" stroke-linecap="butt" d="m999.4951 387.17877l0 0c0 -8.184235 6.662903 -14.818878 14.881897 -14.818878l0 0c3.9469604 0 7.732239 1.5612793 10.523132 4.3403625c2.7908936 2.7790833 4.3587646 6.5483093 4.3587646 10.478516l0 0c0 8.184265 -6.662842 14.818909 -14.881897 14.818909l0 0c-8.218994 0 -14.881897 -6.6346436 -14.881897 -14.818909z" fill-rule="evenodd"/><path fill="#ffffff" d="m1112.5675 252.5915l0 0c0 -8.18425 6.662964 -14.818893 14.881958 -14.818893l0 0c3.9468994 0 7.7321777 1.561264 10.523071 4.3403473c2.7908936 2.7790833 4.3587646 6.5483246 4.3587646 10.478546l0 0c0 8.18425 -6.662842 14.818893 -14.881836 14.818893l0 0c-8.218994 0 -14.881958 -6.6346436 -14.881958 -14.818893z" fill-rule="evenodd"/><path stroke="#ffffff" stroke-width="1.0" stroke-linejoin="round" stroke-linecap="butt" d="m1112.5675 252.5915l0 0c0 -8.18425 6.662964 -14.818893 14.881958 -14.818893l0 0c3.9468994 0 7.7321777 1.561264 10.523071 4.3403473c2.7908936 2.7790833 4.3587646 6.5483246 4.3587646 10.478546l0 0c0 8.18425 -6.662842 14.818893 -14.881836 14.818893l0 0c-8.218994 0 -14.881958 -6.6346436 -14.881958 -14.818893z" fill-rule="evenodd"/><path fill="#ffffff" d="m1235.639 538.2787l0 0c0 -8.184265 6.662842 -14.818909 14.881958 -14.818909l0 0c3.9468994 0 7.7321777 1.5612793 10.523071 4.340332c2.7908936 2.7791138 4.3587646 6.54834 4.3587646 10.478577l0 0c0 8.184265 -6.662842 14.818909 -14.881836 14.818909l0 0c-8.219116 0 -14.881958 -6.6346436 -14.881958 -14.818909z" fill-rule="evenodd"/><path stroke="#ffffff" stroke-width="1.0" stroke-linejoin="round" stroke-linecap="butt" d="m1235.639 538.2787l0 0c0 -8.184265 6.662842 -14.818909 14.881958 -14.818909l0 0c3.9468994 0 7.7321777 1.5612793 10.523071 4.340332c2.7908936 2.7791138 4.3587646 6.54834 4.3587646 10.478577l0 0c0 8.184265 -6.662842 14.818909 -14.881836 14.818909l0 0c-8.219116 0 -14.881958 -6.6346436 -14.881958 -14.818909z" fill-rule="evenodd"/><path fill="#ffffff" d="m1347.6378 431.04874l0 0c0 -8.184235 6.662842 -14.818878 14.881836 -14.818878l0 0c3.9468994 0 7.7321777 1.5612793 10.523071 4.340332c2.7908936 2.7790833 4.3588867 6.54834 4.3588867 10.478546l0 0c0 8.184265 -6.662842 14.818909 -14.881958 14.818909l0 0c-8.218994 0 -14.881836 -6.6346436 -14.881836 -14.818909z" fill-rule="evenodd"/><path stroke="#ffffff" stroke-width="1.0" stroke-linejoin="round" stroke-linecap="butt" d="m1347.6378 431.04874l0 0c0 -8.184235 6.662842 -14.818878 14.881836 -14.818878l0 0c3.9468994 0 7.7321777 1.5612793 10.523071 4.340332c2.7908936 2.7790833 4.3588867 6.54834 4.3588867 10.478546l0 0c0 8.184265 -6.662842 14.818909 -14.881958 14.818909l0 0c-8.218994 0 -14.881836 -6.6346436 -14.881836 -14.818909z" fill-rule="evenodd"/><path fill="#ffffff" d="m1456.9043 603.957l0 0c0 -8.184265 6.662842 -14.818909 14.881958 -14.818909l0 0c3.9468994 0 7.7321777 1.5612793 10.523071 4.340393c2.7908936 2.7790527 4.3587646 6.54834 4.3587646 10.478516l0 0c0 8.184265 -6.662842 14.818909 -14.881836 14.818909l0 0c-8.219116 0 -14.881958 -6.6346436 -14.881958 -14.818909z" fill-rule="evenodd"/><path stroke="#ffffff" stroke-width="1.0" stroke-linejoin="round" stroke-linecap="butt" d="m1456.9043 603.957l0 0c0 -8.184265 6.662842 -14.818909 14.881958 -14.818909l0 0c3.9468994 0 7.7321777 1.5612793 10.523071 4.340393c2.7908936 2.7790527 4.3587646 6.54834 4.3587646 10.478516l0 0c0 8.184265 -6.662842 14.818909 -14.881836 14.818909l0 0c-8.219116 0 -14.881958 -6.6346436 -14.881958 -14.818909z" fill-rule="evenodd"/><path fill="#ffffff" d="m1589.853 93.52089l0 0c0 -8.18425 6.662842 -14.818893 14.881836 -14.818893l0 0c3.9470215 0 7.7323 1.5612717 10.523193 4.340355c2.7908936 2.7790833 4.3587646 6.5483246 4.3587646 10.4785385l0 0c0 8.18425 -6.662842 14.818901 -14.881958 14.818901l0 0c-8.218994 0 -14.881836 -6.634651 -14.881836 -14.818901z" fill-rule="evenodd"/><path stroke="#ffffff" stroke-width="1.0" stroke-linejoin="round" stroke-linecap="butt" d="m1589.853 93.52089l0 0c0 -8.18425 6.662842 -14.818893 14.881836 -14.818893l0 0c3.9470215 0 7.7323 1.5612717 10.523193 4.340355c2.7908936 2.7790833 4.3587646 6.5483246 4.3587646 10.4785385l0 0c0 8.18425 -6.662842 14.818901 -14.881958 14.818901l0 0c-8.218994 0 -14.881836 -6.634651 -14.881836 -14.818901z" fill-rule="evenodd"/><path fill="#000000" fill-opacity="0.0" d="m86.0 -164.57742l753.98425 0l0 956.5669l-753.98425 0z" fill-rule="evenodd"/><path fill="#ffffff" d="m291.4229 342.78415l25.265625 6.375q-7.953125 31.125 -28.59375 47.46875q-20.625 16.328125 -50.453125 16.328125q-30.859375 0 -50.1875 -12.5625q-19.328125 -12.5625 -29.421875 -36.390625q-10.09375 -23.828125 -10.09375 -51.171875q0 -29.8125 11.390625 -52.015625q11.390625 -22.203125 32.421875 -33.71875q21.03125 -11.53125 46.28125 -11.53125q28.65625 0 48.1875 14.59375q19.53125 14.578125 27.203125 41.015625l-24.859375 5.859375q-6.640625 -20.84375 -19.28125 -30.34375q-12.625 -9.5 -31.765625 -9.5q-22.0 0 -36.78125 10.546875q-14.78125 10.546875 -20.765625 28.328125q-5.984375 17.765625 -5.984375 36.640625q0 24.34375 7.09375 42.515625q7.09375 18.15625 22.0625 27.140625q14.96875 8.984375 32.421875 8.984375q21.21875 0 35.9375 -12.234375q14.71875 -12.25 19.921875 -36.328125zm144.00812 66.921875l0 -20.3125q-16.15625 23.4375 -43.875 23.4375q-12.25 0 -22.859375 -4.6875q-10.609375 -4.6875 -15.75 -11.78125q-5.140625 -7.09375 -7.234375 -17.390625q-1.421875 -6.890625 -1.421875 -21.875l0 -85.671875l23.4375 0l0 76.6875q0 18.359375 1.421875 24.75q2.21875 9.234375 9.375 14.515625q7.171875 5.265625 17.703125 5.265625q10.546875 0 19.796875 -5.390625q9.25 -5.40625 13.078125 -14.71875q3.84375 -9.3125 3.84375 -27.015625l0 -74.09375l23.4375 0l0 138.28125l-20.953125 0zm57.41086 0l0 -138.28125l21.09378 0l0 20.96875q8.078125 -14.71875 14.90625 -19.40625q6.84375 -4.6875 15.046875 -4.6875q11.84375 0 24.078125 7.5625l-8.0625 21.734375q-8.59375 -5.078125 -17.1875 -5.078125q-7.6875 0 -13.8125 4.625q-6.109375 4.625 -8.71875 12.828125q-3.90625 12.5 -3.90625 27.34375l0 72.390625l-23.43753 0zm127.47049 0l-52.59375 -138.28125l24.734375 0l29.6875 82.8125q4.8125 13.40625 8.859375 27.859375q3.109375 -10.9375 8.71875 -26.296875l30.71875 -84.375l24.09375 0l-52.34375 138.28125l-21.875 0zm95.046875 -163.92188l0 -26.953125l23.4375 0l0 26.953125l-23.4375 0zm0 163.92188l0 -138.28125l23.4375 0l0 138.28125l-23.4375 0zm110.28937 -20.96875l3.375 20.703125q-9.890625 2.09375 -17.703125 2.09375q-12.75 0 -19.78125 -4.03125q-7.03125 -4.046875 -9.90625 -10.625q-2.859375 -6.578125 -2.859375 -27.671875l0 -79.546875l-17.1875 0l0 -18.234375l17.1875 0l0 -34.234375l23.3125 -14.0625l0 48.296875l23.5625 0l0 18.234375l-23.5625 0l0 80.859375q0 10.015625 1.234375 12.890625q1.234375 2.859375 4.03125 4.5625q2.796875 1.6875 8.015625 1.6875q3.90625 0 10.28125 -0.921875z" fill-rule="nonzero"/></g></svg>